# xmcd
#
# Track frame offsets: 
#        150
#        17030
#        29510
#        46923
#        60942
#        80129
#        92684
#        107481
#        116902
#        127973
#        140716
#        158301
#        187690
#
# Disc length: 2646 seconds
#
# Revision: 0
# Processed by: cddbd v1.5.2PL0 Copyright (c) Steve Scherf et al.
# Submitted via: ExactAudioCopyFreeDBPlugin 1.0
#
DISCID=9d0a540d
DTITLE=Little Country Giants - Dead Reckoning
DYEAR=2015
DGENRE=Country
TTITLE0=Party Till You Fall
TTITLE1=Chart To My Heart
TTITLE2=Dead Reckoning
TTITLE3=Alright To Be Wrong
TTITLE4=Morning Time
TTITLE5=Whiskey
TTITLE6=I Can't Breathe
TTITLE7=Slowly Faded Out
TTITLE8=Melody Into The Ground
TTITLE9=Spark In The Dark
TTITLE10=I WIll Always Be Around
TTITLE11=Just A Little Bit
TTITLE12=Mean Girls
EXTD=
EXTT0=
EXTT1=
EXTT2=
EXTT3=
EXTT4=
EXTT5=
EXTT6=
EXTT7=
EXTT8=
EXTT9=
EXTT10=
EXTT11=
EXTT12=
PLAYORDER=
